<svg id="图层_1" data-name="图层 1" xmlns="http://www.w3.org/2000/svg" xmlns:xlink="http://www.w3.org/1999/xlink" viewBox="0 0 600 600"><defs><style>.cls-1{fill:url(#未命名的渐变_4);}.cls-2{fill:#4e4e4e;}</style><linearGradient id="未命名的渐变_4" x1="366" y1="281.5" x2="579.24" y2="281.5" gradientUnits="userSpaceOnUse"><stop offset="0" stop-color="#c6241e"/><stop offset="1" stop-color="#f3a179"/></linearGradient></defs><path class="cls-1" d="M579.24,481c-5.1-69.31-47.75-128.34-107.62-156.8a144.48,144.48,0,0,0,63.63-119.7C535.25,124.91,470.56,60.14,391,60v.14a22.85,22.85,0,0,0-2.5-.14,22.5,22.5,0,0,0,0,45,22.85,22.85,0,0,0,2.5-.14V105a99.5,99.5,0,0,1,0,199v.05c-.5,0-1-.05-1.5-.05a23.5,23.5,0,0,0,0,47c.5,0,1,0,1.5-.05V351c74.36.13,135.67,56.91,143,129.4v.1a22.5,22.5,0,0,0,45,.5Z"/><path class="cls-2" d="M286.62,342.2a144.48,144.48,0,0,0,63.63-119.7c0-79.68-64.82-144.5-144.5-144.5S61.25,142.82,61.25,222.5a144.48,144.48,0,0,0,63.63,119.7C61,372.56,16.75,437.7,16.75,513H17a22.5,22.5,0,0,0,45-.5,21.19,21.19,0,0,0-.21-3c1.87-77.79,65.73-140.5,144-140.5,79.4,0,144,64.6,144,144H350a22.5,22.5,0,0,0,45-.5,23.3,23.3,0,0,0-.3-3.67C393.1,435.3,349.3,372,286.62,342.2ZM205.75,123a99.5,99.5,0,1,1-99.5,99.5A99.62,99.62,0,0,1,205.75,123Z"/></svg>