<svg id="图层_1" data-name="图层 1" xmlns="http://www.w3.org/2000/svg" viewBox="0 0 508.42 56.8"><defs><style>.cls-1,.cls-2{fill:#b81c22;}.cls-1{fill-rule:evenodd;}</style></defs><path class="cls-1" d="M223.78,2.49c-2.51,0-5.2,2.57-5.2,2.57s-10.5,10.27-17.7,17.29l2-13.7a6.53,6.53,0,0,0-6.46-7.45h-2.2a2,2,0,0,0-1.93,1.67l-7.46,51.77a1.89,1.89,0,0,0,1.87,2.16H189a8.06,8.06,0,0,0,8-6.9l1.58-11.19,4.92-4.85c2.8,4.33,13.1,20.36,13.1,20.36s2.69,2.58,5.2,2.58l6.87,0a2,2,0,0,0,1.64-3.1L213.16,27.78a3,3,0,0,1,.4-3.86l18.7-18.44a1.74,1.74,0,0,0-1.2-3C227.77,2.49,223.78,2.49,223.78,2.49Z"/><path class="cls-1" d="M141.11,1.06H101.05a3,3,0,0,0-2.94,2.5l-1.19,8.22a.31.31,0,0,0,.32.36h16.44l-6.37,44.24a.36.36,0,0,0,.37.42h10.45a.5.5,0,0,0,.49-.42L125.26,12h16.46c.21,0,.15-.16.18-.35l1.42-8.13A2.14,2.14,0,0,0,141.11,1.06Z"/><path class="cls-1" d="M14.82,40.61a3.92,3.92,0,0,0,3.88,4.47H30.53a8,8,0,0,1,8.11,9.36h0a2.6,2.6,0,0,1-2.49,2.16H4.58A4.39,4.39,0,0,1,.05,51.48l7-48.76A2,2,0,0,1,9,1.06h2a8,8,0,0,1,8.14,9.4Z"/><path class="cls-1" d="M181.47,32.77h-6.34a.64.64,0,0,1-.65-.75l1-6.65a.89.89,0,0,1,.85-.74h6.35a.64.64,0,0,1,.64.75l-1,6.65A.89.89,0,0,1,181.47,32.77Z"/><path class="cls-1" d="M186.32,1.06H158.07a12.13,12.13,0,0,0-11.68,10.08l-5,35.26a8.67,8.67,0,0,0,8.75,10.2h28.42a.42.42,0,0,0,.41-.37l.44-4a6.21,6.21,0,0,0-6.16-6.89H159.53a5.33,5.33,0,0,1-5.35-6.27,7.46,7.46,0,0,1,7.1-6.27h9.18a.92.92,0,0,0,.87-.77l.93-6.62a.66.66,0,0,0-.66-.77h-9.19c-2.18,0-4-.79-4.85-2.61-2.19-4.89,2-9.92,6.6-9.92h14.38a7.58,7.58,0,0,0,7.51-6.53l.58-4.16A.3.3,0,0,0,186.32,1.06Z"/><path class="cls-2" d="M89.75,31.39a11.9,11.9,0,0,0-5.65-4.57,16.9,16.9,0,0,0,5.07-4.3,14.79,14.79,0,0,0,3.07-7A12.69,12.69,0,0,0,91,8a11.37,11.37,0,0,0-5.64-5.38A25.65,25.65,0,0,0,75.06.88H54.89A4.73,4.73,0,0,0,50.34,4.8L43.7,50.86a4.89,4.89,0,0,0,5,5.74h18.7a41.15,41.15,0,0,0,9.31-.93,21.06,21.06,0,0,0,6.79-2.82,17.84,17.84,0,0,0,5.11-5.34,18.35,18.35,0,0,0,2.81-7.43A12.37,12.37,0,0,0,89.75,31.39ZM70.12,32.62h2.69a6.16,6.16,0,0,1,1.3.14,4.42,4.42,0,0,1,.65.17l.07,0a5.37,5.37,0,0,1,3.66,6,7.55,7.55,0,0,1-7.24,6.36H57.46a1.24,1.24,0,0,1-1.22-1.42l4.43-30.72A1.31,1.31,0,0,1,62,12.09h14.9a4.58,4.58,0,0,1,4.63,5.39,6.42,6.42,0,0,1-6,5.39h-12a.45.45,0,0,0-.42.37l-.14,1A7.14,7.14,0,0,0,70.12,32.62Z"/><path class="cls-2" d="M507.58,5.68a4.64,4.64,0,0,0-3.65-1.32L485.68,4.3,486.4,0l-9,0-.73,4.34L458.16,4.2h0a5.09,5.09,0,0,0-5.47,4.7L448.2,41.05l23.39.08-.75,5.46a8.63,8.63,0,0,0,1.79,6.89,8.82,8.82,0,0,0,6.67,2.92c3.69.09,7.73.11,10.5.12l14.21,0h1.16l3.21-8.28s-19.15-.11-21.78-.11h-3.52a21.11,21.11,0,0,1-2.32-.11c-.95-.12-1.05-.36-.94-1.19q.38-2.74.76-5.49l0-.22,23.33.09,4.42-32A4.38,4.38,0,0,0,507.58,5.68ZM497.19,27.12l-.78,5.6-14.6,0,.78-5.6Zm2-14.28-.81,5.85-14.58-.05.81-5.85ZM473.49,27l-.78,5.62-14.57-.05.77-5.61Zm2-14.24-.81,5.84-14.59,0,.81-5.85Z"/><path class="cls-2" d="M423.69,46.93,427.29,31l13.9.06a1.31,1.31,0,0,0,1.25-1l1.91-7.2L430,22.85l9.18-19.67a.52.52,0,0,0-.46-.78l-8.48,0s0,0,0,0l-9.56,20.36H418L421.55,0l-8.49,0a.13.13,0,0,0-.12.11l-3.52,22.71h-2.31L402.94,2.63a.26.26,0,0,0-.24-.2l-9,0a.12.12,0,0,0-.11.14l4.12,20.23-12.35,0a.17.17,0,0,0-.16.12l-2.06,7.77a.23.23,0,0,0,.23.3l13.88.06-2.7,6.17a14.22,14.22,0,0,1-3,4.87L380.16,56a.41.41,0,0,0,.3.69h9.4A1.89,1.89,0,0,0,391.3,56l9.09-10.67a13.74,13.74,0,0,0,3.15-5.17L407,31l10.58,0-3.91,18.71a5.65,5.65,0,0,0,5.93,6.77l14.95.06a5.67,5.67,0,0,0,5.56-4.22l1-3.88H425A1.25,1.25,0,0,1,423.69,46.93Z"/><path class="cls-2" d="M328.46,54.55c2.19-3.28,6.32-9.72,8.45-14.74h11.17c.64-2.07,1.27-4.13,1.91-6.19H338.72a37.79,37.79,0,0,0,2.06-7.2l.3-1.68h9.66l1.89-6.13H342.16c.52-3,1-5.91,1.57-8.88h9.65q1-3.09,1.91-6.18H344.82c.37-1.62.39-1.9.75-3.56h-9.39c-.42,1.68-.33,1.85-.75,3.56H325q-.54,3.09-1.09,6.18h10.48c-.52,3-1,5.92-1.57,8.88H322.3l-1.08,6.13h10.47a24.44,24.44,0,0,1-2.53,8.88h-9.51q-.54,3.09-1.09,6.19h8.72c-3,6.76-10,16.87-10,16.87h7.19a4.24,4.24,0,0,0,4-2.13"/><path class="cls-2" d="M295.26,49.59c-.41,2.32.4,2.17,2,2.17h9.33l-3,4.79H291.73q-4.37,0-5.41-4a9.24,9.24,0,0,1-.18-4.08c.31-1.82.63-3.63.95-5.45h9.33c-.11.65-.23,1.31-.35,2h11.69l-1.43,3.48H295.46c-.07.38-.14.76-.2,1.14"/><path class="cls-2" d="M271.28,49.59c-.41,2.32.41,2.17,2,2.17h9.33c-1,1.59-2,3.19-3,4.79H267.76q-4.36,0-5.41-4a9.24,9.24,0,0,1-.19-4.08l1-5.45h9.33c-.12.65-.23,1.31-.35,2h11.68l-1.42,3.48H271.48c-.06.38-.13.76-.2,1.14"/><path class="cls-2" d="M264.86,24.38H311.5l1.67-4.83H289.79l.42-2.34h-9.33c-.14.78-.27,1.56-.41,2.34H260a4.79,4.79,0,0,0-4.72,4q-1.76,10-3.52,20c-.82,4.64-3,10.12-5.84,13.21h9.27s5-7.89,5.89-13.21c.13-.71.25-1.42.38-2.13H303a4.78,4.78,0,0,0,4.71-4l.7-4a4.79,4.79,0,0,0-4.72-5.62h-7.95l.36-2h-9.33c-.12.68-.24,1.36-.35,2h-5.88l.36-2h-9.32l-.36,2h-7.29l.6-3.42ZM295,32h7.29l-.79,4.5h-7.3Zm-15.2,0h5.87l-.79,4.5H279Zm-9.32,0-.8,4.5h-7.29l.8-4.5Z"/><path class="cls-2" d="M362.21.49h21.65L383,5.3s-6.29,13.09-7.26,18.06c-.89,4.52-.1,13.39-.62,17.9a16.6,16.6,0,0,1-.56,2.47c-.27.81-.88,2.35-1.56,4A10.06,10.06,0,0,1,363.68,54h-5.6c-.15.9-.31,1.8-.47,2.7h-9.32q4.59-26.11,9.2-52.23a4.8,4.8,0,0,1,4.72-4m4.46,4.81Q363.08,25.67,359.49,46h2.78a5,5,0,0,0,4.88-3.74,18.66,18.66,0,0,0,.42-2c.5-4.29-.21-12.68.43-17,.73-4.9,5.63-18.06,5.63-18.06Z"/><polygon class="cls-2" points="316.33 2.9 305.79 2.9 306.33 -0.11 297.88 -0.11 297.34 2.9 286.81 2.9 286.19 6.38 288.56 6.38 284.45 16.27 289.6 16.27 295.51 6.38 296.72 6.38 294.98 16.27 298.8 16.27 299.62 16.27 303.43 16.27 305.17 6.38 306.39 6.38 308.82 16.27 313.97 16.27 313.35 6.38 314.9 6.38 316.33 2.9"/><polygon class="cls-2" points="285.55 2.9 275.01 2.9 275.56 -0.11 267.11 -0.11 266.57 2.9 256.03 2.9 255.41 6.38 257.78 6.38 253.67 16.27 258.82 16.27 264.74 6.38 265.96 6.38 264.21 16.27 268.03 16.27 268.84 16.27 272.66 16.27 274.4 6.38 275.62 6.38 278.05 16.27 283.19 16.27 282.58 6.38 284.13 6.38 285.55 2.9"/></svg>