<?xml version="1.0" encoding="utf-8"?>
<!-- Generator: Adobe Illustrator 24.3.0, SVG Export Plug-In . SVG Version: 6.00 Build 0)  -->
<svg version="1.1" id="图层_1" xmlns="http://www.w3.org/2000/svg" xmlns:xlink="http://www.w3.org/1999/xlink" x="0px" y="0px"
	 viewBox="0 0 173.9 33.5" style="enable-background:new 0 0 173.9 33.5;" xml:space="preserve">
<style type="text/css">
	.st0{fill:#BC1C21;}
</style>
<path class="st0" d="M111.7,29.3c1.1,0,2.1,0.9,2.1,2c0,0.6-0.2,1.1-0.6,1.5c-0.8,0.8-2.1,0.9-2.9,0.1s-0.9-2.1-0.1-2.9
	c0,0,0.1-0.1,0.1-0.1C110.6,29.5,111.1,29.3,111.7,29.3z"/>
<path class="st0" d="M128.3,23.3c-0.5-0.5-1-0.9-1.7-1.2c-0.6-0.2-1.3-0.4-1.9-0.3c-1.2-0.1-2.4,0.4-3.3,1.2
	c-0.8,0.8-1.3,1.9-1.2,3.1c0,1.1,0.4,2.2,1.2,3c0.9,0.8,2,1.2,3.2,1.2c1.3,0.1,2.6-0.4,3.5-1.4c0.1-0.1,2.6,2.2,2.4,2.5
	c-3.4,2.9-8.4,2.9-11.7-0.1c-2.9-2.9-2.8-7.7,0.1-10.5c0.5-0.5,1.1-0.9,1.7-1.3c1.3-0.7,2.7-1,4.2-1c1.3,0,2.6,0.3,3.8,0.8
	c0.9,0.4,1.6,1,2.2,1.7C130.9,21.2,128.3,23.3,128.3,23.3z"/>
<path class="st0" d="M141.3,18.4c1.3,0,2.7,0.3,3.8,1c1.2,0.6,2.2,1.6,2.8,2.7c1.3,2.3,1.3,5.2,0,7.6c-0.7,1.2-1.6,2.1-2.8,2.8
	c-1.2,0.7-2.5,1-3.8,1c-2,0-3.9-0.8-5.3-2.2c-3-3-2.9-7.8,0.1-10.8c0.1-0.1,0.1-0.1,0.2-0.2C137.7,19.1,139.5,18.4,141.3,18.4z
	 M141.4,21.8c-1.1,0-2.1,0.4-2.8,1.2c-1.5,1.7-1.5,4.3,0,6c0.7,0.8,1.7,1.2,2.8,1.2c1.1,0,2.1-0.4,2.8-1.2c1.5-1.7,1.5-4.3,0-6
	C143.4,22.2,142.4,21.7,141.4,21.8L141.4,21.8z"/>
<path class="st0" d="M151.8,18.7h1.8c0.8,0,1.8,0.3,1.8,1.2v0.5c0.6-0.6,1.3-1.2,2.1-1.5c0.8-0.3,1.6-0.5,2.5-0.5
	c0.9,0,1.7,0.2,2.4,0.7c0.7,0.5,1.4,1.1,1.7,1.9c0.5-0.8,1.3-1.5,2.1-1.9c0.8-0.4,1.8-0.7,2.7-0.7c0.9,0,1.9,0.2,2.7,0.7
	c0.7,0.4,1.3,1.1,1.7,1.9c0.4,1.2,0.6,2.5,0.5,3.7v8.4h-1.9c-1.7,0-1.7-1-1.7-1.5v-5.8c0.1-1.1-0.1-2.3-0.6-3.3
	c-0.4-0.6-1.1-0.9-1.8-0.9c-0.6,0-1.2,0.2-1.7,0.5c-0.5,0.4-0.9,0.9-1.1,1.5c-0.3,1-0.4,2-0.4,3v6.5h-2c-1.5,0-1.6-1-1.6-1.5v-5.4
	c0-0.9-0.1-1.9-0.3-2.8c-0.1-0.5-0.4-1-0.9-1.3c-0.4-0.3-0.9-0.4-1.4-0.4c-0.6,0-1.2,0.2-1.6,0.5c-0.5,0.4-0.9,0.9-1.1,1.5
	c-0.3,1-0.4,2-0.4,3V33h-1.9c-1.4,0-1.7-0.7-1.7-1.7L151.8,18.7z"/>
<path class="st0" d="M131.3,22.2c0,0.9-0.8,1.7-1.7,1.7c-0.9,0-1.7-0.8-1.7-1.7c0-0.9,0.8-1.7,1.7-1.7l0,0
	C130.6,20.5,131.3,21.3,131.3,22.2z"/>
<path class="st0" d="M130.9,30.1c0,0.9-0.8,1.7-1.7,1.7c-0.9,0-1.7-0.8-1.7-1.7c0-0.9,0.8-1.7,1.7-1.7c0,0,0,0,0,0
	C130.1,28.4,130.9,29.2,130.9,30.1C130.9,30.1,130.9,30.1,130.9,30.1z"/>
<path class="st0" d="M0,0.1h2.4c1.3,0,3.5,0.4,3.5,4.1v28.7H3.7C0,32.8,0,28.5,0,28.5L0,0.1z"/>
<path class="st0" d="M17.2,3.8v8c1-1,2.2-1.8,3.5-2.4c1.3-0.5,2.6-0.8,4-0.8c3,0,5.9,1.2,7.9,3.5c2.2,2.5,3.4,5.7,3.2,9
	c0.1,3.3-1.1,6.4-3.3,8.8c-2,2.3-4.9,3.6-7.9,3.6c-1.3,0-2.6-0.2-3.8-0.7c-1.3-0.6-2.5-1.4-3.5-2.4v2.5h-2.5c-3.4,0-3.4-4.3-3.4-4.3
	V0.1h3C15.5,0.2,17.2,0.5,17.2,3.8z M23.5,14.1c-1.7,0-3.4,0.6-4.6,1.9c-1.3,1.4-1.9,3.2-1.9,5c-0.1,1.9,0.6,3.7,1.9,5.1
	c1.1,1.2,2.7,1.9,4.3,1.9c1.8,0.1,3.5-0.6,4.7-1.8c1.4-1.4,2.1-3.3,2-5.2c0.1-1.8-0.6-3.6-1.8-5C26.8,14.7,25.2,14,23.5,14.1z"/>
<path class="st0" d="M82.6,0.1h2.6c1.7,0,3.4,0.4,3.4,3.9v12.5c0,0.6,0.5,1,1.1,0.9c0.2,0,0.5-0.1,0.6-0.3l5.3-5.9
	c1.1-1.2,2.7-1.9,4.3-2h3.3c0.4,0,0.7,0.3,0.7,0.7c0,0.2-0.1,0.4-0.2,0.5l-9.1,10.1L105,31.8c0.2,0.2,0.2,0.6,0,0.8
	c-0.1,0.1-0.2,0.2-0.4,0.2h-3.5c-2.7,0-3.6-1.2-3.6-1.2l-7.8-8.5c-0.2-0.3-0.6-0.3-0.9-0.1c-0.1,0.1-0.2,0.3-0.2,0.5v9.3h-2.3
	c-1.9,0.1-3.5-1.4-3.6-3.3c0,0,0-0.1,0-0.1V0.1z"/>
<path class="st0" d="M46.9,28V14.5H48c1.3,0,2.3-1,2.3-2.3V9.4h-3.5V4.2c0.2-1.8-1.2-3.4-3-3.5c-0.2,0-0.4,0-0.6,0h-2.4v8.8h-3v5.1
	h3v13.7c0,0-0.3,5.2,3.7,5.2H46c2.8-0.2,4.9-2.4,4.9-5.2v-0.6L46.9,28z"/>
<path class="st0" d="M70.7,25.8c-1.3,1.7-3.3,2.6-5.4,2.6c-0.2,0-0.4,0-0.6,0h-0.2c-2.9-0.4-5.3-2.6-5.9-5.5c0-0.1,0.1-0.2,0.1-0.2
	c0,0,0,0,0,0h18.9v-1.1c0.2-3.5-1.1-6.9-3.5-9.5c-2.4-2.4-5.7-3.7-9.1-3.6c-3.3-0.1-6.5,1.2-8.8,3.6c-2.3,2.4-3.6,5.7-3.5,9
	c-0.1,3.3,1.2,6.5,3.5,8.8c0.1,0.1,0.3,0.3,0.5,0.4c2.3,2.1,5.2,3.2,8.3,3.1h0.5c3.2-0.1,6.4-1.4,8.8-3.5c1.2-1.2,2.1-2.7,2.7-4.3
	c0.1,0,0.1-0.2,0.1-0.2c0,0-0.1-0.1-0.1-0.1L75.7,25c-1.3-0.6-2.9-0.6-4.2,0.1C71.2,25.3,70.9,25.5,70.7,25.8z M65.3,13.6
	c1.4,0,2.8,0.4,4,1.2c1.1,0.7,1.8,1.8,2.3,3c0,0.1,0,0.2-0.1,0.2c0,0,0,0,0,0H59c-0.1,0-0.1-0.1-0.1-0.1c0,0,0,0,0,0
	C59.9,15.2,62.5,13.4,65.3,13.6z"/>
<polygon class="st0" points="164.3,10.3 163.4,9.2 163.1,9.5 163.4,5.1 164.6,5.1 164.7,3.6 163.5,3.6 163.6,1 162,1 161.8,3.6 
	160.5,3.6 160.4,5.1 161.7,5.1 161.3,11.1 160,12.2 161,13.3 164.2,10.4 "/>
<path class="st0" d="M173.8,3.2l0.1-1.6h-0.4l-0.4-1.5V0h-1.3l0.3,1.6h-0.7l0.1-1.6h-1.8l-0.1,1.6h-4.2c-0.1,0-0.1,0.1-0.2,0.1
	l-0.6,7.7c0,0.2-0.1,0.4-0.1,0.6l-1,3.4h1.6l0.9-3.2c0.1-0.3,0.2-0.6,0.2-0.9l0.2-2.8h1l-0.2,3c0,0.2,0,0.3-0.1,0.5l-0.9,3.4h1.6
	l0.8-3.5L169,6c0-0.2-0.1-0.5-0.2-0.6c-0.2-0.2-0.4-0.3-0.6-0.3h-1.4l0.1-1.8h2.8l-0.3,4.4c0,0.3,0,0.6,0.2,0.8l1.1,2.2l-1.6,2.7
	h1.8l0.6-1.1l0.6,1.1h1.9l-1.5-3l1.2-2.1c0.1-0.2,0.1-0.4,0.2-0.5l0.2-2.8h-1.5l-0.2,2.5c0,0.3-0.1,0.6-0.2,0.8l-0.3,0.6l-0.4-0.8
	c0-0.1,0-0.2,0-0.3l0.3-4.6L173.8,3.2z"/>
<path class="st0" d="M146.3,0.9h5.7l0.1-0.6h2v0.6h5.8l-0.3,1.2h-13.3L146.3,0.9z M156.4,7.9h-1l-0.3,3.2c-0.2,0.8-0.6,2.2-3,2.2
	c-2.9,0-3-1.3-3.1-2.2l0.3-3.1c-0.3,0.1-0.6,0.2-0.9,0.2l-0.1-0.3l-0.5,5.5h-2l0.8-8.6c0-0.3,0.3-0.6,0.6-0.6h1.5l-0.4-1.5h2
	l0.4,1.5h4l0.7-1.5h2l-0.7,1.5h1.2c0.4,0,0.7,0.3,0.7,0.8c0,0,0,0,0,0l-0.7,8.4h-2L156.4,7.9z M154.4,7.7l-1.1-2.3h2l1.1,2.3
	l0.2-2.8h-8.2l-0.2,2.7c0.7-0.6,1.2-1.3,1.5-2.1h2.1c-0.3,1-1,1.8-1.9,2.3H154.4z M153.1,11l0.2-2.6h-2.1L151,11c0,0,0,1.1,1,1.1
	S153.1,11,153.1,11L153.1,11z"/>
<path class="st0" d="M133,12.6c0.6-1.1,1.1-2.2,1.6-3.4h2.5c0.1-0.5,0.2-0.9,0.3-1.4h-2.6c0.2-0.5,0.3-1.1,0.3-1.6V5.9h2.2
	c0.1-0.5,0.2-0.9,0.3-1.4h-2.4c0.1-0.7,0.1-1.4,0.1-2h2.2c0.1-0.5,0.2-0.9,0.3-1.4h-2.4c0.1-0.4,0.1-0.4,0.1-0.8h-2.1
	c0,0.4,0,0.4-0.1,0.8h-2.4c0,0.5-0.1,0.9-0.1,1.4h2.4l-0.1,2h-2.3c0,0.5-0.1,0.9-0.1,1.4h2.4c0,0.7-0.1,1.4-0.4,2h-2.2
	c0,0.5-0.1,0.9-0.1,1.4h2c-0.5,1.3-1.2,2.6-1.9,3.8h1.6C132.5,13.2,132.9,13,133,12.6"/>
<path class="st0" d="M124.9,11.5c-0.1,0.5,0.1,0.5,0.5,0.5h2.1l-0.6,1.1h-2.7c-0.6,0-1.1-0.3-1.3-0.9c-0.1-0.3-0.1-0.6-0.1-0.9
	l0.2-1.2h2.1l-0.1,0.5h2.7l-0.3,0.8H125C125,11.4,125,11.4,124.9,11.5"/>
<path class="st0" d="M119.5,11.5c-0.1,0.5,0.1,0.5,0.5,0.5h2.1l-0.6,1.1h-2.7c-0.6,0-1.1-0.3-1.3-0.9c-0.1-0.3-0.1-0.6-0.1-0.9
	l0.2-1.2h2.1l-0.1,0.5h2.7l-0.3,0.8h-2.5C119.6,11.4,119.6,11.4,119.5,11.5"/>
<path class="st0" d="M117.8,5.8h10.6l0.3-1.1h-5.3V4.1h-2.1v0.5h-4.6c-0.5,0-0.9,0.4-1,0.9l-0.3,4.6c0,1.1-0.4,2.1-1,3h2.1
	c0.5-0.9,0.8-2,1-3V9.7h9.4c0.5,0,1-0.4,1-0.9c0-0.3,0-0.6,0.1-0.9c0-0.7-0.5-1.3-1.2-1.3c0,0,0,0,0,0h-1.7V6.1h-2.1
	c0,0.1,0,0.3,0,0.5h-1.4V6.1h-2.1c0,0.1,0,0.3,0,0.5h-1.7L117.8,5.8L117.8,5.8z M124.8,7.5h1.7l-0.1,1h-1.7L124.8,7.5z M121.3,7.5
	h1.3l-0.1,1h-1.3L121.3,7.5z M119.2,7.5l-0.1,1h-1.7l0.1-1H119.2z"/>
<path class="st0" d="M139.4,0.3h4.9c0,0.4,0,0.7-0.1,1.1c-0.5,1.3-0.9,2.7-1.2,4.1c-0.1,1,0.3,3,0.3,4.1c0,0.2,0,0.4-0.1,0.6
	c0,0.2-0.1,0.5-0.3,0.9c-0.3,0.9-1.1,1.5-2,1.4h-1.3c0,0.2,0,0.4,0,0.6h-2.1c0.3-4,0.6-8,0.9-11.9C138.5,0.7,138.9,0.3,139.4,0.3
	 M140.6,1.4l-0.7,9.3h0.6c0.5,0,0.9-0.4,1-0.9c0-0.1,0-0.3,0.1-0.5c0-1-0.4-2.9-0.3-3.9c0.2-1.4,0.5-2.8,0.9-4.1L140.6,1.4z"/>
<polygon class="st0" points="128.4,1.7 128.8,1.7 129,0.9 126.6,0.9 126.6,0.3 125.6,0.3 125.3,3.9 126.4,3.9 126.5,1.7 126.8,1.7 
	127.6,3.9 128.8,3.9 "/>
<polygon class="st0" points="122.2,1.7 122.3,0.9 124.7,0.9 124.7,0.3 125.8,0.3 125.5,3.9 124.5,3.9 124.6,1.7 124.3,1.7 
	123.2,3.9 122.1,3.9 122.8,1.7 "/>
<polygon class="st0" points="121.4,1.7 121.8,1.7 122,0.9 119.6,0.9 119.6,0.3 118.6,0.3 118.3,3.9 119.4,3.9 119.5,1.7 119.8,1.7 
	120.6,3.9 121.8,3.9 "/>
<polygon class="st0" points="115.2,1.7 115.3,0.9 117.7,0.9 117.7,0.3 118.8,0.3 118.5,3.9 117.4,3.9 117.6,1.7 117.3,1.7 
	116.2,3.9 115.1,3.9 115.8,1.7 "/>
</svg>
