<svg id="图层_1" data-name="图层 1" xmlns="http://www.w3.org/2000/svg" xmlns:xlink="http://www.w3.org/1999/xlink" viewBox="0 0 600 600"><defs><style>.cls-1{fill:#4e4e4e;}.cls-2{fill:url(#未命名的渐变_4);}</style><linearGradient id="未命名的渐变_4" x1="147.5" y1="338.5" x2="455.5" y2="338.5" gradientUnits="userSpaceOnUse"><stop offset="0" stop-color="#c6241e"/><stop offset="1" stop-color="#f3a179"/></linearGradient></defs><path class="cls-1" d="M303.5,3.26a80.12,80.12,0,0,0-38.56,9.88L62.65,124A80.21,80.21,0,0,0,21,194.37V409.13a80.21,80.21,0,0,0,41.65,70.33l202.29,110.9a80.19,80.19,0,0,0,77.12,0l202.29-110.9A80.21,80.21,0,0,0,586,409.13V194.37A80.21,80.21,0,0,0,544.35,124L342.06,13.14A80.12,80.12,0,0,0,303.5,3.26Zm0,552a35.23,35.23,0,0,1-16.92-4.34L84.28,440A35.19,35.19,0,0,1,66,409.13V194.37A35.19,35.19,0,0,1,84.28,163.5L286.58,52.6a35.15,35.15,0,0,1,33.84,0l202.3,110.9A35.19,35.19,0,0,1,541,194.37V409.13A35.19,35.19,0,0,1,522.72,440L320.42,550.9a35.23,35.23,0,0,1-16.92,4.34Z"/><path class="cls-2" d="M422,208.88,301.5,276.54,181,208.88a22.5,22.5,0,0,0-22,39.24L280.5,316.35V448.5a22.5,22.5,0,0,0,45,0V314.67L444,248.12a22.5,22.5,0,0,0-22-39.24Z"/></svg>