<svg id="图层_1" data-name="图层 1" xmlns="http://www.w3.org/2000/svg" xmlns:xlink="http://www.w3.org/1999/xlink" viewBox="0 0 600 600"><defs><style>.cls-1{fill:#fff;}.cls-2{fill:#4e4e4e;}.cls-3{fill:url(#未命名的渐变_4);}.cls-4{fill:url(#未命名的渐变_4-2);}</style><linearGradient id="未命名的渐变_4" x1="110.55" y1="264.77" x2="395.83" y2="264.77" gradientUnits="userSpaceOnUse"><stop offset="0" stop-color="#c6241e"/><stop offset="1" stop-color="#f3a179"/></linearGradient><linearGradient id="未命名的渐变_4-2" x1="110.55" y1="358.63" x2="309.48" y2="358.63" xlink:href="#未命名的渐变_4"/></defs><path class="cls-1" d="M184.17,384c-40.71,0-73.83-36.19-73.83-80.67V102.17c0-44.48,33.12-80.67,73.83-80.67h303.5c40.71,0,73.83,36.19,73.83,80.67V303.33c0,44.48-33.12,80.67-73.83,80.67Z"/><path class="cls-2" d="M487.67,44C516,44,539,70.05,539,102.17V303.33c0,32.13-23,58.17-51.33,58.17H184.17c-28.35,0-51.33-26-51.33-58.17V102.17c0-32.12,23-58.17,51.33-58.17h303.5m0-45H184.17a90.65,90.65,0,0,0-39.43,9,96.11,96.11,0,0,0-30.61,23.27,106.91,106.91,0,0,0-26.29,70.91V303.33a106.91,106.91,0,0,0,26.29,70.91,96.11,96.11,0,0,0,30.61,23.27,90.51,90.51,0,0,0,39.43,9h303.5a90.51,90.51,0,0,0,39.43-9,96.11,96.11,0,0,0,30.61-23.27A106.91,106.91,0,0,0,584,303.33V102.17a106.91,106.91,0,0,0-26.29-70.91A96.11,96.11,0,0,0,527.1,8a90.65,90.65,0,0,0-39.43-9Z"/><path class="cls-1" d="M171.92,573.38a35.82,35.82,0,0,1-26.38-11.83,39,39,0,0,1-9.74-29.92l1.62-17.4a4.29,4.29,0,0,0-.17-1.72H116.33c-40.71,0-73.83-36.19-73.83-80.68V230.68C42.5,186.2,75.62,150,116.33,150h303.5c40.71,0,73.83,36.2,73.83,80.68V431.83c0,44.49-33.12,80.68-73.83,80.68H242.63a8,8,0,0,0-5.94,3.22l-37.82,44.83A35.36,35.36,0,0,1,171.92,573.38Z"/><path class="cls-2" d="M419.83,172.51c28.35,0,51.33,26,51.33,58.17V431.84c0,32.12-23,58.17-51.33,58.17H242.63a30.34,30.34,0,0,0-23.14,11.21l-37.82,44.83a12.66,12.66,0,0,1-9.75,4.83c-7.5,0-14.66-7.08-13.72-17.16l1.62-17.4c1.32-14.06-8.41-26.31-20.89-26.31h-22.6C88,490,65,464,65,431.84V230.68c0-32.13,23-58.17,51.33-58.17h303.5m0-45H116.33a90.51,90.51,0,0,0-39.43,9,96.11,96.11,0,0,0-30.61,23.27A106.89,106.89,0,0,0,20,230.68V431.84a106.86,106.86,0,0,0,26.29,70.9A96.29,96.29,0,0,0,76.9,526,90.46,90.46,0,0,0,113.12,535,61.37,61.37,0,0,0,128.9,576.7a58.42,58.42,0,0,0,43,19.18,57.77,57.77,0,0,0,44.14-20.81L249.86,535h170a90.65,90.65,0,0,0,39.43-9,96.29,96.29,0,0,0,30.61-23.28,106.86,106.86,0,0,0,26.29-70.9V230.68a106.89,106.89,0,0,0-26.29-70.91,96.11,96.11,0,0,0-30.61-23.27,90.51,90.51,0,0,0-39.43-9Z"/><path class="cls-3" d="M373.33,287.27H133.05a22.5,22.5,0,0,1,0-45H373.33a22.5,22.5,0,1,1,0,45Z"/><path class="cls-4" d="M287,381.13H133.05a22.5,22.5,0,0,1,0-45H287a22.5,22.5,0,0,1,0,45Z"/></svg>