<svg id="图层_1" data-name="图层 1" xmlns="http://www.w3.org/2000/svg" xmlns:xlink="http://www.w3.org/1999/xlink" viewBox="0 0 600 600"><defs><style>.cls-1{fill:#4e4e4e;}.cls-2{fill:url(#未命名的渐变_4);}.cls-3{fill:url(#未命名的渐变_4-2);}</style><linearGradient id="未命名的渐变_4" x1="112.55" y1="264.77" x2="397.83" y2="264.77" gradientUnits="userSpaceOnUse"><stop offset="0" stop-color="#c6241e"/><stop offset="1" stop-color="#f3a179"/></linearGradient><linearGradient id="未命名的渐变_4-2" x1="112.55" y1="358.63" x2="311.48" y2="358.63" xlink:href="#未命名的渐变_4"/></defs><path class="cls-1" d="M489.67-1H186.17a90.65,90.65,0,0,0-39.43,9,96.11,96.11,0,0,0-30.61,23.27,106.91,106.91,0,0,0-26.29,70.91v29.92A92.28,92.28,0,0,0,78.9,136.5a96.11,96.11,0,0,0-30.61,23.27A106.89,106.89,0,0,0,22,230.68V431.84a106.86,106.86,0,0,0,26.29,70.9A96.29,96.29,0,0,0,78.9,526,90.46,90.46,0,0,0,115.12,535,61.37,61.37,0,0,0,130.9,576.7a58.42,58.42,0,0,0,43,19.18,57.77,57.77,0,0,0,44.14-20.81L251.86,535h170a90.65,90.65,0,0,0,39.43-9,96.29,96.29,0,0,0,30.61-23.28,106.86,106.86,0,0,0,26.29-70.9V401.9a90.48,90.48,0,0,0,10.94-4.39,96.11,96.11,0,0,0,30.61-23.27A106.91,106.91,0,0,0,586,303.33V102.17a106.91,106.91,0,0,0-26.29-70.91A96.11,96.11,0,0,0,529.1,8a90.65,90.65,0,0,0-39.43-9ZM134.84,127.51V102.17c0-32.12,23-58.17,51.33-58.17h303.5C518,44,541,70.05,541,102.17V303.33c0,20.18-9.07,37.94-22.84,48.37v-121a106.89,106.89,0,0,0-26.29-70.91,96.11,96.11,0,0,0-30.61-23.27,90.51,90.51,0,0,0-39.43-9ZM118.33,490C90,490,67,464,67,431.84V230.68c0-32.13,23-58.17,51.33-58.17h303.5c28.35,0,51.33,26,51.33,58.17V431.84c0,32.12-23,58.17-51.33,58.17H244.63a30.34,30.34,0,0,0-23.14,11.21l-37.82,44.83a12.66,12.66,0,0,1-9.75,4.83c-7.5,0-14.66-7.08-13.72-17.16l1.62-17.4c1.32-14.06-8.41-26.31-20.89-26.31Z"/><path class="cls-2" d="M375.33,287.27H135.05a22.5,22.5,0,0,1,0-45H375.33a22.5,22.5,0,1,1,0,45Z"/><path class="cls-3" d="M289,381.13H135.05a22.5,22.5,0,0,1,0-45H289a22.5,22.5,0,0,1,0,45Z"/></svg>