<svg id="图层_1" data-name="图层 1" xmlns="http://www.w3.org/2000/svg" xmlns:xlink="http://www.w3.org/1999/xlink" viewBox="0 0 600 600"><defs><style>.cls-1{fill:url(#未命名的渐变_4);}.cls-2{fill:url(#未命名的渐变_4-2);}</style><linearGradient id="未命名的渐变_4" x1="88.61" y1="289.88" x2="511.39" y2="289.88" gradientUnits="userSpaceOnUse"><stop offset="0" stop-color="#c6241e"/><stop offset="1" stop-color="#f3a179"/></linearGradient><linearGradient id="未命名的渐变_4-2" x1="17" y1="300.75" x2="582" y2="300.75" xlink:href="#未命名的渐变_4"/></defs><path class="cls-1" d="M138.68,300.81l56.74,75.65a22.25,22.25,0,1,1-35.6,26.71l-66.75-89a22.23,22.23,0,0,1,0-26.7l66.75-89a22.25,22.25,0,0,1,35.6,26.71Zm265.9,75.65a22.25,22.25,0,1,0,35.6,26.71l66.76-89a22.26,22.26,0,0,0,0-26.7l-66.76-89a22.25,22.25,0,0,0-35.6,26.71l56.74,75.65ZM299.47,394.65A22.25,22.25,0,0,1,256,385l44.5-200.26A22.25,22.25,0,0,1,344,194.38Zm0,0"/><path class="cls-2" d="M299.5,47.26a35.23,35.23,0,0,1,16.92,4.34l202.3,110.9A35.19,35.19,0,0,1,537,193.37V408.13A35.19,35.19,0,0,1,518.72,439L316.42,549.9a35.15,35.15,0,0,1-33.84,0L80.28,439A35.19,35.19,0,0,1,62,408.13V193.37A35.19,35.19,0,0,1,80.28,162.5L282.58,51.6a35.23,35.23,0,0,1,16.92-4.34m0-45a80.12,80.12,0,0,0-38.56,9.88L58.65,123A80.21,80.21,0,0,0,17,193.37V408.13a80.21,80.21,0,0,0,41.65,70.33l202.29,110.9a80.19,80.19,0,0,0,77.12,0l202.29-110.9A80.21,80.21,0,0,0,582,408.13V193.37A80.21,80.21,0,0,0,540.35,123L338.06,12.14A80.12,80.12,0,0,0,299.5,2.26Z"/></svg>