<svg id="图层_1" data-name="图层 1" xmlns="http://www.w3.org/2000/svg" xmlns:xlink="http://www.w3.org/1999/xlink" viewBox="0 0 600 600"><defs><style>.cls-1{fill:#4f4e4e;}.cls-2{fill:url(#未命名的渐变_4);}</style><linearGradient id="未命名的渐变_4" x1="264.11" y1="202.05" x2="410.52" y2="202.05" gradientUnits="userSpaceOnUse"><stop offset="0" stop-color="#bb2921"/><stop offset="1" stop-color="#ea9d77"/></linearGradient></defs><path class="cls-1" d="M299,.36A46.63,46.63,0,0,0,271.86,9L21.68,179.91A50.17,50.17,0,0,0,.86,212.43a48.94,48.94,0,0,0,8.25,37.69,48.32,48.32,0,0,0,12.4,12.43l.07,0L286.2,440.3a25,25,0,0,0,28.05,0L494.57,319V406a24.43,24.43,0,0,1-9.81,19.52L315.5,551.35a28.48,28.48,0,0,1-16.19,5.33,28.1,28.1,0,0,1-15.69-4.78l-189.21-129c-4.94-3.61-12.27-14.69-13.06-24.65-.37-4.55.71-8.18,3.21-10.81a4.86,4.86,0,0,1,1.29.51L287.72,525.54a20.63,20.63,0,0,0,12,3.8A22.1,22.1,0,0,0,317.65,520c6.79-9.51,4.33-23-5.49-30L109.61,352.28a45.61,45.61,0,0,0-25.15-7.64,44.16,44.16,0,0,0-22.1,5.92,45.81,45.81,0,0,0-23.83,41.11v7.43a72.07,72.07,0,0,0,30.6,59L259.36,587.52a71.89,71.89,0,0,0,39.87,12.41,75.52,75.52,0,0,0,41.12-12.69l.19-.13L525.06,441a30.49,30.49,0,0,0,11.61-23.82l.82-125.89,42.29-27.88.34-.33a43.51,43.51,0,0,0,18.24-28.57,44.92,44.92,0,0,0-7.71-34l0,0a47.7,47.7,0,0,0-10.18-10.18L327.83,10A48.23,48.23,0,0,0,299,.36Zm1.25,394.83a11.84,11.84,0,0,1-6.62-2L46.31,227.39a10.21,10.21,0,0,1-2.06-2.09,6.66,6.66,0,0,1-1-5.16,7.93,7.93,0,0,1,3-4.7L296.11,44.3a4.89,4.89,0,0,1,2.77-.9,5.62,5.62,0,0,1,3.21,1.13l253,180.65.61.61a2.9,2.9,0,0,1,.27.55,2.44,2.44,0,0,1-.66,1.08L306.84,393.19a11.9,11.9,0,0,1-6.59,2Z"/><path class="cls-2" d="M405,191.22l-119.71-85.3a13.53,13.53,0,0,0-14.11-1.11,13.05,13.05,0,0,0-7.1,11.67v170.9a13.33,13.33,0,0,0,7.27,11.9,13.34,13.34,0,0,0,13.93-1L405,213l.11-.08A13.51,13.51,0,0,0,410.52,202,13.33,13.33,0,0,0,405,191.22Z"/></svg>