<svg id="图层_1" data-name="图层 1" xmlns="http://www.w3.org/2000/svg" xmlns:xlink="http://www.w3.org/1999/xlink" viewBox="0 0 600 600"><defs><style>.cls-1{fill:url(#未命名的渐变_4);}.cls-2{fill:none;}.cls-3{fill:#4f4e4e;}</style><linearGradient id="未命名的渐变_4" x1="342.39" y1="456.03" x2="599.06" y2="456.03" gradientUnits="userSpaceOnUse"><stop offset="0" stop-color="#bb2921"/><stop offset="1" stop-color="#ea9d77"/></linearGradient></defs><path class="cls-1" d="M598.65,570.83a130.11,130.11,0,0,0-79.17-96.38,88.24,88.24,0,1,0-97.49,0,130.21,130.21,0,0,0-79.17,96.38,24.1,24.1,0,0,0,47.36,9,82.11,82.11,0,0,1,161.28,0,24,24,0,1,0,47.19-9Zm-127.91-210a40.14,40.14,0,1,1-38.62,40.11,40.14,40.14,0,0,1,38.62-40.11Zm0,0"/><rect class="cls-2" y="0.5" width="600" height="600"/><path class="cls-3" d="M551.66.57H48.13A48.21,48.21,0,0,0,0,48.73V551.57A48.2,48.2,0,0,0,48.13,599.7H233.35a24.08,24.08,0,0,0,0-48.16H48.16V48.73H551.68V276.11a24.07,24.07,0,0,0,48.14,0V48.73A48.22,48.22,0,0,0,551.66.57Z"/><path class="cls-3" d="M318.94,129H110.35a24.08,24.08,0,1,0,0,48.16H318.94a24.08,24.08,0,0,0,0-48.16ZM110.35,177.11h0Z"/><path class="cls-3" d="M233.32,257.34h-123a24.08,24.08,0,1,0,0,48.15h123a24.08,24.08,0,1,0,0-48.15Z"/><path class="cls-3" d="M233.32,385.72h-123a24.08,24.08,0,0,0,0,48.16h123a24.08,24.08,0,0,0,0-48.16Z"/></svg>